<?xml version="1.0" encoding="utf-8" standalone="no"?>
<!DOCTYPE svg PUBLIC "-//W3C//DTD SVG 1.1//EN"
  "http://www.w3.org/Graphics/SVG/1.1/DTD/svg11.dtd">
<svg xmlns:xlink="http://www.w3.org/1999/xlink" width="174.261895pt" height="169.632pt" viewBox="0 0 174.261895 169.632" xmlns="http://www.w3.org/2000/svg" version="1.1">
 <metadata>
  <rdf:RDF xmlns:dc="http://purl.org/dc/elements/1.1/" xmlns:cc="http://creativecommons.org/ns#" xmlns:rdf="http://www.w3.org/1999/02/22-rdf-syntax-ns#">
   <cc:Work>
    <dc:type rdf:resource="http://purl.org/dc/dcmitype/StillImage"/>
    <dc:date>2026-10-02T00:55:22.691561</dc:date>
    <dc:format>image/svg+xml</dc:format>
    <dc:creator>
     <cc:Agent>
      <dc:title>Matplotlib v3.10.8, https://matplotlib.org/</dc:title>
     </cc:Agent>
    </dc:creator>
   </cc:Work>
  </rdf:RDF>
 </metadata>
 <defs>
  <style type="text/css">*{stroke-linejoin: round; stroke-linecap: butt}</style>
 </defs>
 <g id="figure_1">
  <g id="patch_1">
   <path d="M 0 169.632 
L 174.261895 169.632 
L 174.261895 0 
L 0 0 
z
" style="fill: #ffffff"/>
  </g>
  <g id="axes_1">
   <g id="patch_2">
    <path d="M 27.581381 84.816 
Q 29.668166 84.816 30.636918 84.816 
" clip-path="url(#p6e3ac04ab1)" style="fill: none; stroke: #0b0b0b; stroke-linecap: round"/>
    <path d="M 26.636918 82.816 
L 30.636918 84.816 
L 26.636918 86.816 
z
" clip-path="url(#p6e3ac04ab1)" style="fill: #0b0b0b; stroke: #0b0b0b; stroke-linecap: round"/>
   </g>
   <g id="patch_3">
    <path d="M 142.050619 84.816 
Q 139.963834 84.816 138.995082 84.816 
" clip-path="url(#p6e3ac04ab1)" style="fill: none; stroke: #0b0b0b; stroke-linecap: round"/>
    <path d="M 142.995082 86.816 
L 138.995082 84.816 
L 142.995082 82.816 
z
" clip-path="url(#p6e3ac04ab1)" style="fill: #0b0b0b; stroke: #0b0b0b; stroke-linecap: round"/>
   </g>
   <g id="line2d_1">
    <path d="M 84.816 125.666526 
L 84.123618 124.974145 
L 83.431236 124.281763 
L 82.738855 123.589381 
L 82.046473 122.896999 
L 81.354091 122.204617 
L 80.661709 121.512236 
L 79.969327 120.819854 
L 79.276946 120.127472 
L 78.584564 119.43509 
L 77.892182 118.742708 
L 77.1998 118.050326 
L 76.507418 117.357945 
L 75.815037 116.665563 
L 75.122655 115.973181 
L 74.430273 115.280799 
L 73.737891 114.588417 
L 73.045509 113.896036 
L 72.353128 113.203654 
L 71.660746 112.511272 
L 70.968364 111.81889 
L 70.275982 111.126508 
L 69.5836 110.434127 
L 68.891219 109.741745 
L 68.198837 109.049363 
L 67.506455 108.356981 
L 66.814073 107.664599 
L 66.121691 106.972218 
L 65.42931 106.279836 
L 64.736928 105.587454 
L 64.044546 104.895072 
L 63.352164 104.20269 
L 62.659782 103.510309 
L 61.967401 102.817927 
L 61.275019 102.125545 
L 60.582637 101.433163 
L 59.890255 100.740781 
L 59.197873 100.0484 
L 58.505492 99.356018 
L 57.81311 98.663636 
L 57.120728 97.971254 
L 56.428346 97.278872 
L 55.735964 96.586491 
L 55.043583 95.894109 
L 54.351201 95.201727 
L 53.658819 94.509345 
L 52.966437 93.816963 
L 52.274055 93.124582 
L 51.581674 92.4322 
L 50.889292 91.739818 
L 50.19691 91.047436 
L 49.504528 90.355054 
L 48.812146 89.662673 
L 48.119764 88.970291 
L 47.427383 88.277909 
L 46.735001 87.585527 
L 46.042619 86.893145 
L 45.350237 86.200764 
L 44.657855 85.508382 
L 43.965474 84.816 
" clip-path="url(#p6e3ac04ab1)" style="fill: none; stroke: #2a78d6; stroke-width: 2.6; stroke-linecap: round"/>
   </g>
   <g id="line2d_2">
    <path d="M 43.965474 84.816 
L 44.657855 84.123618 
L 45.350237 83.431236 
L 46.042619 82.738855 
L 46.735001 82.046473 
L 47.427383 81.354091 
L 48.119764 80.661709 
L 48.812146 79.969327 
L 49.504528 79.276946 
L 50.19691 78.584564 
L 50.889292 77.892182 
L 51.581674 77.1998 
L 52.274055 76.507418 
L 52.966437 75.815037 
L 53.658819 75.122655 
L 54.351201 74.430273 
L 55.043583 73.737891 
L 55.735964 73.045509 
L 56.428346 72.353128 
L 57.120728 71.660746 
L 57.81311 70.968364 
L 58.505492 70.275982 
L 59.197873 69.5836 
L 59.890255 68.891219 
L 60.582637 68.198837 
L 61.275019 67.506455 
L 61.967401 66.814073 
L 62.659782 66.121691 
L 63.352164 65.42931 
L 64.044546 64.736928 
L 64.736928 64.044546 
L 65.42931 63.352164 
L 66.121691 62.659782 
L 66.814073 61.967401 
L 67.506455 61.275019 
L 68.198837 60.582637 
L 68.891219 59.890255 
L 69.5836 59.197873 
L 70.275982 58.505492 
L 70.968364 57.81311 
L 71.660746 57.120728 
L 72.353128 56.428346 
L 73.045509 55.735964 
L 73.737891 55.043583 
L 74.430273 54.351201 
L 75.122655 53.658819 
L 75.815037 52.966437 
L 76.507418 52.274055 
L 77.1998 51.581674 
L 77.892182 50.889292 
L 78.584564 50.19691 
L 79.276946 49.504528 
L 79.969327 48.812146 
L 80.661709 48.119764 
L 81.354091 47.427383 
L 82.046473 46.735001 
L 82.738855 46.042619 
L 83.431236 45.350237 
L 84.123618 44.657855 
L 84.816 43.965474 
" clip-path="url(#p6e3ac04ab1)" style="fill: none; stroke: #2a78d6; stroke-width: 2.6; stroke-linecap: round"/>
   </g>
   <g id="line2d_3">
    <path d="M 84.816 125.666526 
L 85.508382 124.974145 
L 86.200764 124.281763 
L 86.893145 123.589381 
L 87.585527 122.896999 
L 88.277909 122.204617 
L 88.970291 121.512236 
L 89.662673 120.819854 
L 90.355054 120.127472 
L 91.047436 119.43509 
L 91.739818 118.742708 
L 92.4322 118.050326 
L 93.124582 117.357945 
L 93.816963 116.665563 
L 94.509345 115.973181 
L 95.201727 115.280799 
L 95.894109 114.588417 
L 96.586491 113.896036 
L 97.278872 113.203654 
L 97.971254 112.511272 
L 98.663636 111.81889 
L 99.356018 111.126508 
L 100.0484 110.434127 
L 100.740781 109.741745 
L 101.433163 109.049363 
L 102.125545 108.356981 
L 102.817927 107.664599 
L 103.510309 106.972218 
L 104.20269 106.279836 
L 104.895072 105.587454 
L 105.587454 104.895072 
L 106.279836 104.20269 
L 106.972218 103.510309 
L 107.664599 102.817927 
L 108.356981 102.125545 
L 109.049363 101.433163 
L 109.741745 100.740781 
L 110.434127 100.0484 
L 111.126508 99.356018 
L 111.81889 98.663636 
L 112.511272 97.971254 
L 113.203654 97.278872 
L 113.896036 96.586491 
L 114.588417 95.894109 
L 115.280799 95.201727 
L 115.973181 94.509345 
L 116.665563 93.816963 
L 117.357945 93.124582 
L 118.050326 92.4322 
L 118.742708 91.739818 
L 119.43509 91.047436 
L 120.127472 90.355054 
L 120.819854 89.662673 
L 121.512236 88.970291 
L 122.204617 88.277909 
L 122.896999 87.585527 
L 123.589381 86.893145 
L 124.281763 86.200764 
L 124.974145 85.508382 
L 125.666526 84.816 
" clip-path="url(#p6e3ac04ab1)" style="fill: none; stroke: #2a78d6; stroke-width: 2.6; stroke-linecap: round"/>
   </g>
   <g id="line2d_4">
    <path d="M 125.666526 84.816 
L 124.974145 84.123618 
L 124.281763 83.431236 
L 123.589381 82.738855 
L 122.896999 82.046473 
L 122.204617 81.354091 
L 121.512236 80.661709 
L 120.819854 79.969327 
L 120.127472 79.276946 
L 119.43509 78.584564 
L 118.742708 77.892182 
L 118.050326 77.1998 
L 117.357945 76.507418 
L 116.665563 75.815037 
L 115.973181 75.122655 
L 115.280799 74.430273 
L 114.588417 73.737891 
L 113.896036 73.045509 
L 113.203654 72.353128 
L 112.511272 71.660746 
L 111.81889 70.968364 
L 111.126508 70.275982 
L 110.434127 69.5836 
L 109.741745 68.891219 
L 109.049363 68.198837 
L 108.356981 67.506455 
L 107.664599 66.814073 
L 106.972218 66.121691 
L 106.279836 65.42931 
L 105.587454 64.736928 
L 104.895072 64.044546 
L 104.20269 63.352164 
L 103.510309 62.659782 
L 102.817927 61.967401 
L 102.125545 61.275019 
L 101.433163 60.582637 
L 100.740781 59.890255 
L 100.0484 59.197873 
L 99.356018 58.505492 
L 98.663636 57.81311 
L 97.971254 57.120728 
L 97.278872 56.428346 
L 96.586491 55.735964 
L 95.894109 55.043583 
L 95.201727 54.351201 
L 94.509345 53.658819 
L 93.816963 52.966437 
L 93.124582 52.274055 
L 92.4322 51.581674 
L 91.739818 50.889292 
L 91.047436 50.19691 
L 90.355054 49.504528 
L 89.662673 48.812146 
L 88.970291 48.119764 
L 88.277909 47.427383 
L 87.585527 46.735001 
L 86.893145 46.042619 
L 86.200764 45.350237 
L 85.508382 44.657855 
L 84.816 43.965474 
" clip-path="url(#p6e3ac04ab1)" style="fill: none; stroke: #2a78d6; stroke-width: 2.6; stroke-linecap: round"/>
   </g>
   <g id="line2d_5">
    <path d="M 84.816 125.666526 
L 84.816 124.281763 
L 84.816 122.896999 
L 84.816 121.512236 
L 84.816 120.127472 
L 84.816 118.742708 
L 84.816 117.357945 
L 84.816 115.973181 
L 84.816 114.588417 
L 84.816 113.203654 
L 84.816 111.81889 
L 84.816 110.434127 
L 84.816 109.049363 
L 84.816 107.664599 
L 84.816 106.279836 
L 84.816 104.895072 
L 84.816 103.510309 
L 84.816 102.125545 
L 84.816 100.740781 
L 84.816 99.356018 
L 84.816 97.971254 
L 84.816 96.586491 
L 84.816 95.201727 
L 84.816 93.816963 
L 84.816 92.4322 
L 84.816 91.047436 
L 84.816 89.662673 
L 84.816 88.277909 
L 84.816 86.893145 
L 84.816 85.508382 
L 84.816 84.123618 
L 84.816 82.738855 
L 84.816 81.354091 
L 84.816 79.969327 
L 84.816 78.584564 
L 84.816 77.1998 
L 84.816 75.815037 
L 84.816 74.430273 
L 84.816 73.045509 
L 84.816 71.660746 
L 84.816 70.275982 
L 84.816 68.891219 
L 84.816 67.506455 
L 84.816 66.121691 
L 84.816 64.736928 
L 84.816 63.352164 
L 84.816 61.967401 
L 84.816 60.582637 
L 84.816 59.197873 
L 84.816 57.81311 
L 84.816 56.428346 
L 84.816 55.043583 
L 84.816 53.658819 
L 84.816 52.274055 
L 84.816 50.889292 
L 84.816 49.504528 
L 84.816 48.119764 
L 84.816 46.735001 
L 84.816 45.350237 
L 84.816 43.965474 
" clip-path="url(#p6e3ac04ab1)" style="fill: none; stroke: #2a78d6; stroke-width: 2.6; stroke-linecap: round"/>
   </g>
   <g id="line2d_6">
    <path d="M 43.965474 84.816 
L 18.638147 84.816 
" clip-path="url(#p6e3ac04ab1)" style="fill: none; stroke: #0b0b0b; stroke-width: 1.4; stroke-linecap: square"/>
   </g>
   <g id="line2d_7">
    <path d="M 125.666526 84.816 
L 150.993853 84.816 
" clip-path="url(#p6e3ac04ab1)" style="fill: none; stroke: #0b0b0b; stroke-width: 1.4; stroke-linecap: square"/>
   </g>
   <g id="text_1">
    <!-- $x_{1}$ -->
    <g style="fill: #2a78d6" transform="translate(53.580886 113.846114) scale(0.09 -0.09)">
     <defs>
      <path id="Cmmi10-78" d="M 500 184 
Q 613 97 819 97 
Q 1019 97 1172 289 
Q 1325 481 1381 709 
L 1672 1844 
Q 1741 2153 1741 2266 
Q 1741 2425 1652 2544 
Q 1563 2663 1403 2663 
Q 1200 2663 1022 2536 
Q 844 2409 722 2214 
Q 600 2019 550 1819 
Q 538 1778 500 1778 
L 422 1778 
Q 372 1778 372 1838 
L 372 1856 
Q 434 2094 584 2320 
Q 734 2547 951 2687 
Q 1169 2828 1416 2828 
Q 1650 2828 1839 2703 
Q 2028 2578 2106 2363 
Q 2216 2559 2386 2693 
Q 2556 2828 2759 2828 
Q 2897 2828 3040 2779 
Q 3184 2731 3275 2631 
Q 3366 2531 3366 2381 
Q 3366 2219 3261 2101 
Q 3156 1984 2994 1984 
Q 2891 1984 2822 2050 
Q 2753 2116 2753 2216 
Q 2753 2350 2845 2451 
Q 2938 2553 3066 2572 
Q 2950 2663 2747 2663 
Q 2541 2663 2389 2472 
Q 2238 2281 2175 2047 
L 1894 916 
Q 1825 659 1825 494 
Q 1825 331 1917 214 
Q 2009 97 2163 97 
Q 2463 97 2698 361 
Q 2934 625 3009 941 
Q 3022 978 3059 978 
L 3138 978 
Q 3163 978 3178 961 
Q 3194 944 3194 922 
Q 3194 916 3188 903 
Q 3097 522 2806 225 
Q 2516 -72 2150 -72 
Q 1916 -72 1727 54 
Q 1538 181 1459 397 
Q 1359 209 1182 68 
Q 1006 -72 806 -72 
Q 669 -72 523 -23 
Q 378 25 287 125 
Q 197 225 197 378 
Q 197 528 301 651 
Q 406 775 563 775 
Q 669 775 741 711 
Q 813 647 813 544 
Q 813 409 723 309 
Q 634 209 500 184 
z
" transform="scale(0.015625)"/>
      <path id="Cmr10-31" d="M 594 0 
L 594 225 
Q 1394 225 1394 428 
L 1394 3788 
Q 1063 3628 556 3628 
L 556 3853 
Q 1341 3853 1741 4263 
L 1831 4263 
Q 1853 4263 1873 4245 
Q 1894 4228 1894 4206 
L 1894 428 
Q 1894 225 2694 225 
L 2694 0 
L 594 0 
z
" transform="scale(0.015625)"/>
     </defs>
     <use xlink:href="#Cmmi10-78" transform="translate(0 0.8125)"/>
     <use xlink:href="#Cmr10-31" transform="translate(57.080078 -16.19375) scale(0.7)"/>
    </g>
   </g>
   <g id="text_2">
    <!-- $x_{2}$ -->
    <g style="fill: #2a78d6" transform="translate(53.580886 60.285886) scale(0.09 -0.09)">
     <defs>
      <path id="Cmr10-32" d="M 319 0 
L 319 172 
Q 319 188 331 206 
L 1325 1306 
Q 1550 1550 1690 1715 
Q 1831 1881 1968 2097 
Q 2106 2313 2186 2536 
Q 2266 2759 2266 3009 
Q 2266 3272 2169 3511 
Q 2072 3750 1880 3894 
Q 1688 4038 1416 4038 
Q 1138 4038 916 3870 
Q 694 3703 603 3438 
Q 628 3444 672 3444 
Q 816 3444 917 3347 
Q 1019 3250 1019 3097 
Q 1019 2950 917 2848 
Q 816 2747 672 2747 
Q 522 2747 420 2851 
Q 319 2956 319 3097 
Q 319 3338 409 3548 
Q 500 3759 670 3923 
Q 841 4088 1055 4175 
Q 1269 4263 1509 4263 
Q 1875 4263 2190 4108 
Q 2506 3953 2690 3670 
Q 2875 3388 2875 3009 
Q 2875 2731 2753 2481 
Q 2631 2231 2440 2026 
Q 2250 1822 1953 1562 
Q 1656 1303 1563 1216 
L 838 519 
L 1453 519 
Q 1906 519 2211 526 
Q 2516 534 2534 550 
Q 2609 631 2688 1141 
L 2875 1141 
L 2694 0 
L 319 0 
z
" transform="scale(0.015625)"/>
     </defs>
     <use xlink:href="#Cmmi10-78" transform="translate(0 0.8125)"/>
     <use xlink:href="#Cmr10-32" transform="translate(57.080078 -16.19375) scale(0.7)"/>
    </g>
   </g>
   <g id="text_3">
    <!-- $x_{3}$ -->
    <g style="fill: #2a78d6" transform="translate(107.141114 113.846114) scale(0.09 -0.09)">
     <defs>
      <path id="Cmr10-33" d="M 609 494 
Q 759 275 1012 169 
Q 1266 63 1556 63 
Q 1928 63 2084 380 
Q 2241 697 2241 1100 
Q 2241 1281 2208 1462 
Q 2175 1644 2097 1800 
Q 2019 1956 1883 2050 
Q 1747 2144 1550 2144 
L 1125 2144 
Q 1069 2144 1069 2203 
L 1069 2259 
Q 1069 2309 1125 2309 
L 1478 2338 
Q 1703 2338 1851 2506 
Q 2000 2675 2069 2917 
Q 2138 3159 2138 3378 
Q 2138 3684 1994 3881 
Q 1850 4078 1556 4078 
Q 1313 4078 1091 3986 
Q 869 3894 738 3706 
Q 750 3709 759 3711 
Q 769 3713 781 3713 
Q 925 3713 1022 3613 
Q 1119 3513 1119 3372 
Q 1119 3234 1022 3134 
Q 925 3034 781 3034 
Q 641 3034 541 3134 
Q 441 3234 441 3372 
Q 441 3647 606 3850 
Q 772 4053 1033 4158 
Q 1294 4263 1556 4263 
Q 1750 4263 1965 4205 
Q 2181 4147 2356 4039 
Q 2531 3931 2642 3762 
Q 2753 3594 2753 3378 
Q 2753 3109 2633 2881 
Q 2513 2653 2303 2487 
Q 2094 2322 1844 2241 
Q 2122 2188 2372 2031 
Q 2622 1875 2773 1631 
Q 2925 1388 2925 1106 
Q 2925 753 2731 467 
Q 2538 181 2222 20 
Q 1906 -141 1556 -141 
Q 1256 -141 954 -26 
Q 653 88 461 316 
Q 269 544 269 863 
Q 269 1022 375 1128 
Q 481 1234 641 1234 
Q 744 1234 830 1186 
Q 916 1138 964 1050 
Q 1013 963 1013 863 
Q 1013 706 903 600 
Q 794 494 641 494 
L 609 494 
z
" transform="scale(0.015625)"/>
     </defs>
     <use xlink:href="#Cmmi10-78" transform="translate(0 0.8125)"/>
     <use xlink:href="#Cmr10-33" transform="translate(57.080078 -16.19375) scale(0.7)"/>
    </g>
   </g>
   <g id="text_4">
    <!-- $x_{4}$ -->
    <g style="fill: #2a78d6" transform="translate(107.141114 60.285886) scale(0.09 -0.09)">
     <defs>
      <path id="Cmr10-34" d="M 178 1056 
L 178 1281 
L 2156 4231 
Q 2178 4263 2222 4263 
L 2316 4263 
Q 2388 4263 2388 4191 
L 2388 1281 
L 3016 1281 
L 3016 1056 
L 2388 1056 
L 2388 428 
Q 2388 297 2575 261 
Q 2763 225 3009 225 
L 3009 0 
L 1247 0 
L 1247 225 
Q 1494 225 1681 261 
Q 1869 297 1869 428 
L 1869 1056 
L 178 1056 
z
M 391 1281 
L 1906 1281 
L 1906 3547 
L 391 1281 
z
" transform="scale(0.015625)"/>
     </defs>
     <use xlink:href="#Cmmi10-78" transform="translate(0 0.8125)"/>
     <use xlink:href="#Cmr10-34" transform="translate(57.080078 -16.19375) scale(0.7)"/>
    </g>
   </g>
   <g id="text_5">
    <!-- $x_{5}$ -->
    <g style="fill: #2a78d6" transform="translate(89.348116 87.066) scale(0.09 -0.09)">
     <defs>
      <path id="Cmr10-35" d="M 556 728 
Q 622 541 758 387 
Q 894 234 1080 148 
Q 1266 63 1466 63 
Q 1928 63 2103 422 
Q 2278 781 2278 1294 
Q 2278 1516 2270 1667 
Q 2263 1819 2228 1959 
Q 2169 2184 2020 2353 
Q 1872 2522 1656 2522 
Q 1441 2522 1286 2456 
Q 1131 2391 1034 2303 
Q 938 2216 863 2119 
Q 788 2022 769 2016 
L 697 2016 
Q 681 2016 657 2036 
Q 634 2056 634 2075 
L 634 4213 
Q 634 4228 654 4245 
Q 675 4263 697 4263 
L 716 4263 
Q 1147 4056 1631 4056 
Q 2106 4056 2547 4263 
L 2566 4263 
Q 2588 4263 2606 4247 
Q 2625 4231 2625 4213 
L 2625 4153 
Q 2625 4122 2613 4122 
Q 2394 3831 2064 3668 
Q 1734 3506 1381 3506 
Q 1125 3506 856 3578 
L 856 2369 
Q 1069 2541 1236 2614 
Q 1403 2688 1663 2688 
Q 2016 2688 2295 2484 
Q 2575 2281 2725 1954 
Q 2875 1628 2875 1288 
Q 2875 903 2686 575 
Q 2497 247 2172 53 
Q 1847 -141 1466 -141 
Q 1150 -141 886 21 
Q 622 184 470 459 
Q 319 734 319 1044 
Q 319 1188 412 1278 
Q 506 1369 647 1369 
Q 788 1369 883 1276 
Q 978 1184 978 1044 
Q 978 906 883 811 
Q 788 716 647 716 
Q 625 716 597 720 
Q 569 725 556 728 
z
" transform="scale(0.015625)"/>
     </defs>
     <use xlink:href="#Cmmi10-78" transform="translate(0 0.8125)"/>
     <use xlink:href="#Cmr10-35" transform="translate(57.080078 -16.19375) scale(0.7)"/>
    </g>
   </g>
   <g id="text_6">
    <!-- $p$ -->
    <g transform="translate(10.270105 87.255063) scale(0.1 -0.1)">
     <defs>
      <path id="Cmmi10-70" d="M -159 -1241 
Q -219 -1241 -219 -1159 
Q -197 -1019 -134 -1019 
Q 66 -1019 145 -983 
Q 225 -947 269 -800 
L 991 2081 
Q 1038 2200 1038 2388 
Q 1038 2663 850 2663 
Q 650 2663 553 2423 
Q 456 2184 366 1819 
Q 366 1778 313 1778 
L 238 1778 
Q 222 1778 203 1801 
Q 184 1825 184 1844 
Q 253 2122 317 2315 
Q 381 2509 517 2668 
Q 653 2828 856 2828 
Q 1075 2828 1240 2704 
Q 1406 2581 1453 2369 
Q 1628 2572 1840 2700 
Q 2053 2828 2278 2828 
Q 2547 2828 2745 2684 
Q 2944 2541 3044 2308 
Q 3144 2075 3144 1806 
Q 3144 1394 2933 953 
Q 2722 513 2361 220 
Q 2000 -72 1588 -72 
Q 1400 -72 1248 34 
Q 1097 141 1013 313 
L 722 -825 
Q 706 -919 703 -934 
Q 703 -1019 1125 -1019 
Q 1191 -1019 1191 -1100 
Q 1169 -1184 1155 -1212 
Q 1141 -1241 1081 -1241 
L -159 -1241 
z
M 1594 97 
Q 1816 97 2006 280 
Q 2197 463 2316 691 
Q 2403 863 2479 1111 
Q 2556 1359 2612 1640 
Q 2669 1922 2669 2088 
Q 2669 2234 2630 2362 
Q 2591 2491 2502 2577 
Q 2413 2663 2266 2663 
Q 2031 2663 1823 2495 
Q 1616 2328 1447 2081 
L 1447 2059 
L 1094 647 
Q 1138 419 1263 258 
Q 1388 97 1594 97 
z
" transform="scale(0.015625)"/>
     </defs>
     <use xlink:href="#Cmmi10-70" transform="translate(0 0.8125)"/>
    </g>
   </g>
   <g id="text_7">
    <!-- $-p$ -->
    <g transform="translate(154.261895 87.255063) scale(0.1 -0.1)">
     <defs>
      <path id="Cmsy10-a1" d="M 653 1472 
Q 600 1472 565 1512 
Q 531 1553 531 1600 
Q 531 1647 565 1687 
Q 600 1728 653 1728 
L 4325 1728 
Q 4375 1728 4408 1687 
Q 4441 1647 4441 1600 
Q 4441 1553 4408 1512 
Q 4375 1472 4325 1472 
L 653 1472 
z
" transform="scale(0.015625)"/>
     </defs>
     <use xlink:href="#Cmsy10-a1" transform="translate(0 0.8125)"/>
     <use xlink:href="#Cmmi10-70" transform="translate(77.685547 0.8125)"/>
    </g>
   </g>
   <g id="line2d_8">
    <defs>
     <path id="m0ba0a88aaf" d="M 0 2 
C 0.530406 2 1.03916 1.789267 1.414214 1.414214 
C 1.789267 1.03916 2 0.530406 2 0 
C 2 -0.530406 1.789267 -1.03916 1.414214 -1.414214 
C 1.03916 -1.789267 0.530406 -2 0 -2 
C -0.530406 -2 -1.03916 -1.789267 -1.414214 -1.414214 
C -1.789267 -1.03916 -2 -0.530406 -2 0 
C -2 0.530406 -1.789267 1.03916 -1.414214 1.414214 
C -1.03916 1.789267 -0.530406 2 0 2 
z
" style="stroke: #0b0b0b"/>
    </defs>
    <g clip-path="url(#p6e3ac04ab1)">
     <use xlink:href="#m0ba0a88aaf" x="43.965474" y="84.816" style="fill: #0b0b0b; stroke: #0b0b0b"/>
    </g>
   </g>
   <g id="line2d_9">
    <g clip-path="url(#p6e3ac04ab1)">
     <use xlink:href="#m0ba0a88aaf" x="84.816" y="43.965474" style="fill: #0b0b0b; stroke: #0b0b0b"/>
    </g>
   </g>
   <g id="line2d_10">
    <g clip-path="url(#p6e3ac04ab1)">
     <use xlink:href="#m0ba0a88aaf" x="125.666526" y="84.816" style="fill: #0b0b0b; stroke: #0b0b0b"/>
    </g>
   </g>
   <g id="line2d_11">
    <g clip-path="url(#p6e3ac04ab1)">
     <use xlink:href="#m0ba0a88aaf" x="84.816" y="125.666526" style="fill: #0b0b0b; stroke: #0b0b0b"/>
    </g>
   </g>
  </g>
 </g>
 <defs>
  <clipPath id="p6e3ac04ab1">
   <rect x="7.2" y="7.2" width="155.232" height="155.232"/>
  </clipPath>
 </defs>
</svg>
